name C:\Users\r0593348\3dpredictsim\Results\MidTarsalJoint\Fal_s1_bCst_PF_Natali2010_ls150_MT_k30_MTP_T2_ig24.mot
datacolumns 128
datarows 4
range 0.60598429 0.64234334
endheader
time	pelvis_tilt	pelvis_list	pelvis_rotation	pelvis_tx	pelvis_ty	pelvis_tz	hip_flexion_l	hip_adduction_l	hip_rotation_l	hip_flexion_r	hip_adduction_r	hip_rotation_r	knee_angle_l	knee_angle_r	ankle_angle_l	ankle_angle_r	subtalar_angle_l	subtalar_angle_r	mtj_angle_l	mtj_angle_r	mtp_angle_l	mtp_angle_r	lumbar_extension	lumbar_bending	lumbar_rotation	arm_flex_l	arm_add_l	arm_rot_l	arm_flex_r	arm_add_r	arm_rot_r	elbow_flex_l	elbow_flex_r	pro_sup_l	pro_sup_r	glut_med1_l/activation	glut_med2_l/activation	glut_med3_l/activation	glut_min1_l/activation	glut_min2_l/activation	glut_min3_l/activation	semimem_l/activation	semiten_l/activation	bifemlh_l/activation	bifemsh_l/activation	sar_l/activation	add_long_l/activation	add_brev_l/activation	add_mag1_l/activation	add_mag2_l/activation	add_mag3_l/activation	tfl_l/activation	pect_l/activation	grac_l/activation	glut_max1_l/activation	glut_max2_l/activation	glut_max3_l/activation	iliacus_l/activation	psoas_l/activation	quad_fem_l/activation	gem_l/activation	peri_l/activation	rect_fem_l/activation	vas_med_l/activation	vas_int_l/activation	vas_lat_l/activation	med_gas_l/activation	lat_gas_l/activation	soleus_l/activation	tib_post_l/activation	flex_dig_l/activation	flex_hal_l/activation	tib_ant_l/activation	per_brev_l/activation	per_long_l/activation	per_tert_l/activation	ext_dig_l/activation	ext_hal_l/activation	ercspn_l/activation	intobl_l/activation	extobl_l/activation	glut_med1_r/activation	glut_med2_r/activation	glut_med3_r/activation	glut_min1_r/activation	glut_min2_r/activation	glut_min3_r/activation	semimem_r/activation	semiten_r/activation	bifemlh_r/activation	bifemsh_r/activation	sar_r/activation	add_long_r/activation	add_brev_r/activation	add_mag1_r/activation	add_mag2_r/activation	add_mag3_r/activation	tfl_r/activation	pect_r/activation	grac_r/activation	glut_max1_r/activation	glut_max2_r/activation	glut_max3_r/activation	iliacus_r/activation	psoas_r/activation	quad_fem_r/activation	gem_r/activation	peri_r/activation	rect_fem_r/activation	vas_med_r/activation	vas_int_r/activation	vas_lat_r/activation	med_gas_r/activation	lat_gas_r/activation	soleus_r/activation	tib_post_r/activation	flex_dig_r/activation	flex_hal_r/activation	tib_ant_r/activation	per_brev_r/activation	per_long_r/activation	per_tert_r/activation	ext_dig_r/activation	ext_hal_r/activation	ercspn_r/activation	intobl_r/activation	extobl_r/activation	
          0.60598429	         -2.92864517	          2.18007150	         -6.45319524	          0.75748036	          0.91642047	          0.00130736	         29.88552833	          3.03509665	         -2.24423239	        -15.68411234	         -1.81657456	          7.83425687	         -9.46383772	        -11.94823420	          5.24946157	         -7.81110965	         -4.67049713	         15.50424138	         -0.15419708	         13.76943955	         -0.84485284	         -1.62775821	         -1.41623721	         -0.16453583	          2.85151296	         -7.81720847	        -13.51708093	          4.94651429	          4.79877211	        -13.45176117	         15.27867045	         18.24453869	         39.55022649	         86.51662706	         86.51662706	          0.06009972	          0.06009971	          0.05000025	          0.06009974	          0.06009973	          0.06009854	          0.22776940	          0.10558196	          0.14692305	          0.10812270	          0.05000019	          0.15342249	          0.23007842	          0.28005647	          0.23273939	          0.12138678	          0.05000012	          0.05000742	          0.16609719	          0.05007667	          0.08756431	          0.15568440	          0.05000041	          0.05000019	          0.15418677	          0.29848043	          0.12255794	          0.05000008	          0.07222699	          0.07218979	          0.06957389	          0.07525912	          0.07668615	          0.06261205	          0.05000009	          0.05000068	          0.05000071	          0.41615473	          0.21465820	          0.16428544	          0.08141717	          0.45560178	          0.22568450	          0.05000002	          0.11569014	          0.11209141	          0.24181287	          0.10436301	          0.05189880	          0.26092280	          0.18127789	          0.10439615	          0.05000215	          0.05000029	          0.05000019	          0.05000221	          0.11261975	          0.06093862	          0.05001169	          0.05000059	          0.05000102	          0.05000046	          0.30095475	          0.07223854	          0.05000137	          0.05000080	          0.05000047	          0.05000034	          0.45600633	          0.62010224	          0.05000007	          0.05000033	          0.05000048	          0.38978576	          0.05000014	          0.05000015	          0.05000013	          0.27650343	          0.37802630	          0.38875060	          0.23811486	          0.15586168	          0.23542891	          0.05000002	          0.13413739	          0.20992052	          0.05000024	          0.05000006	          0.05000019	          0.05000000	          0.05000014	          0.06660857	
          0.61810397	         -2.93001205	          2.26467950	         -6.77946892	          0.77613113	          0.91518009	          0.00118803	         29.25640831	          3.43665546	         -1.98130203	        -15.67235494	         -2.15165537	          7.66423493	        -10.13566579	        -13.68701411	          4.56830534	         -8.27367295	         -4.95809933	         16.41543190	         -0.30066853	         12.29566976	         -0.81342329	         -0.77788667	         -1.16602768	         -0.35353500	          2.93933444	         -8.83640314	        -13.50375726	          4.93655880	          4.45523715	        -13.46345567	         15.64737339	         17.72753332	         40.86777444	         86.51662706	         86.51662706	          0.05000000	          0.05000002	          0.10007714	          0.05000003	          0.05000003	          0.05000004	          0.18949288	          0.08783899	          0.12223272	          0.08995280	          0.06010052	          0.12764001	          0.30624379	          0.31888598	          0.20224714	          0.10806151	          0.05000015	          0.07226322	          0.16120907	          0.05000117	          0.12104822	          0.15930229	          0.05000014	          0.06010046	          0.53217748	          0.24832097	          0.10196231	          0.06009973	          0.06009966	          0.06009966	          0.06009966	          0.07223953	          0.07223960	          0.06047806	          0.05734788	          0.05000115	          0.05741444	          0.44641960	          0.22458672	          0.20946289	          0.06773514	          0.37903815	          0.18775835	          0.05000000	          0.09624846	          0.09325450	          0.20117637	          0.08682491	          0.05000019	          0.21707494	          0.15081427	          0.08685246	          0.05000207	          0.05000046	          0.05000047	          0.05000011	          0.09369423	          0.13431877	          0.05021652	          0.06010014	          0.06009970	          0.06010026	          0.25037957	          0.06009962	          0.05000590	          0.05002250	          0.05002233	          0.06006488	          0.37937512	          0.59546659	          0.05605471	          0.05003784	          0.05000038	          0.34688782	          0.12429502	          0.13864936	          0.07097171	          0.23003715	          0.31449920	          0.34122806	          0.19809990	          0.12966943	          0.19586545	          0.05000003	          0.11159610	          0.23070388	          0.05000009	          0.05000002	          0.05000016	          0.05000028	          0.07223959	          0.08272948	
          0.63022366	         -2.92675194	          2.35251761	         -7.06825702	          0.79515927	          0.91392541	          0.00110828	         28.50807154	          3.72375127	         -1.68205833	        -15.64099800	         -2.48333948	          7.48638010	        -10.87571501	        -15.43686350	          3.92253030	         -8.77578355	         -5.26605578	         17.20763219	         -0.53566150	         10.40166672	         -0.70518841	          0.52770181	         -0.89045778	         -0.55495292	          3.00975898	         -9.88213837	        -13.50108067	          5.00583265	          4.02079069	        -13.47144786	         15.93873780	         17.24638348	         42.15175609	         86.51662706	         86.51662706	          0.24093878	          0.24512560	          0.27742179	          0.35944968	          0.24083471	          0.22184457	          0.15764873	          0.09603023	          0.10506223	          0.09161067	          0.05000080	          0.10619019	          0.25477969	          0.26529740	          0.16825993	          0.14113137	          0.05000020	          0.06011980	          0.13414055	          0.05000026	          0.15065545	          0.15206909	          0.05121812	          0.05000072	          0.44274529	          0.20659079	          0.18676220	          0.05000002	          0.05000006	          0.05000006	          0.05000005	          0.06009971	          0.06009978	          0.05031475	          0.05000002	          0.05000022	          0.05000021	          0.51981474	          0.30369575	          0.17426277	          0.35830197	          0.47551622	          0.15624472	          0.05000025	          0.12545356	          0.07758312	          0.31422147	          0.07223902	          0.05000129	          0.30545974	          0.12547012	          0.07225701	          0.05000125	          0.05000016	          0.05000014	          0.05000025	          0.08681911	          0.11174661	          0.05000026	          0.05000050	          0.05000067	          0.05000065	          0.28224620	          0.05000282	          0.05000048	          0.05000223	          0.05000106	          0.05000047	          0.33502700	          0.57508881	          0.05000018	          0.05000073	          0.05000096	          0.35271561	          0.10340739	          0.11534950	          0.05904501	          0.19137950	          0.26164775	          0.28388482	          0.16480932	          0.10787864	          0.16295043	          0.05000003	          0.22120579	          0.23685317	          0.05000037	          0.06005569	          0.05000022	          0.05000001	          0.06009976	          0.06882683	
          0.64234334	         -2.92193652	          2.43982289	         -7.31289970	          0.81429275	          0.91278742	          0.00099910	         27.75666226	          3.98417927	         -1.38892604	        -15.53628558	         -2.80507378	          7.32198305	        -11.59386516	        -17.24204927	          3.21191539	         -9.35412928	         -5.57203208	         17.88586245	         -0.45807069	          8.06929524	         -0.63944378	          2.38431366	         -0.61945092	         -0.76334306	          3.06918139	        -10.89342246	        -13.49783618	          5.14413436	          3.54309173	        -13.48422437	         16.18264030	         16.78015849	         43.35999287	         86.51662706	         86.51662706	          0.33779906	          0.35094996	          0.38017891	          0.29904438	          0.20036312	          0.20457190	          0.13115595	          0.07989261	          0.08740676	          0.07621557	          0.05000109	          0.08834499	          0.21196409	          0.22071436	          0.13998411	          0.16835079	          0.05000023	          0.05001687	          0.11159838	          0.22600508	          0.21001229	          0.17944602	          0.05000003	          0.05000004	          0.36834216	          0.17187334	          0.15537700	          0.05000006	          0.08499574	          0.09275502	          0.07724162	          0.05000002	          0.05000007	          0.05000000	          0.05000009	          0.05000010	          0.05000010	          0.59310862	          0.28806875	          0.16854196	          0.53429154	          0.52835327	          0.29100572	          0.06357356	          0.10437115	          0.06454532	          0.26170701	          0.06009943	          0.05000044	          0.25412773	          0.10438497	          0.06011430	          0.05000137	          0.05000014	          0.05000014	          0.05000020	          0.07222984	          0.11685247	          0.05000069	          0.05000074	          0.05000104	          0.05000029	          0.23481582	          0.07225118	          0.05000263	          0.05000238	          0.05000118	          0.05000059	          0.27872596	          0.54449176	          0.05000066	          0.05000260	          0.05000028	          0.29344199	          0.08603070	          0.09626155	          0.12776261	          0.15921825	          0.21767796	          0.23617809	          0.13711320	          0.08974976	          0.13556674	          0.06894706	          0.18714108	          0.23255203	          0.05000032	          0.12341799	          0.05000086	          0.06201853	          0.05000003	          0.05726051	
